<mxfile host="app.diagrams.net" agent="Mozilla/5.0 (Macintosh; Intel Mac OS X 10_15_7) AppleWebKit/537.36 (KHTML, like Gecko) Chrome/128.0.0.0 Safari/537.36" version="24.7.12">
  <diagram id="prtHgNgQTEPvFCAcTncT" name="Page-1">
    <mxGraphModel dx="901" dy="592" grid="0" gridSize="10" guides="1" tooltips="1" connect="1" arrows="1" fold="1" page="1" pageScale="1" pageWidth="827" pageHeight="1169" math="0" shadow="0">
      <root>
        <mxCell id="0" />
        <mxCell id="1" parent="0" />
        <mxCell id="94EtWdqL8nrlPsYe5-Ux-1" value="单点登录业务处理流程" style="swimlane;childLayout=stackLayout;resizeParent=1;resizeParentMax=0;startSize=20;horizontal=0;horizontalStack=1;" vertex="1" parent="1">
          <mxGeometry x="104" y="300" width="406" height="480" as="geometry" />
        </mxCell>
        <mxCell id="94EtWdqL8nrlPsYe5-Ux-2" value="用户浏览器" style="swimlane;startSize=20;" vertex="1" parent="94EtWdqL8nrlPsYe5-Ux-1">
          <mxGeometry x="20" width="120" height="480" as="geometry" />
        </mxCell>
        <mxCell id="94EtWdqL8nrlPsYe5-Ux-7" value="用户访问" style="strokeWidth=2;html=1;shape=mxgraph.flowchart.start_1;whiteSpace=wrap;" vertex="1" parent="94EtWdqL8nrlPsYe5-Ux-2">
          <mxGeometry x="10" y="40" width="100" height="60" as="geometry" />
        </mxCell>
        <mxCell id="94EtWdqL8nrlPsYe5-Ux-3" value="子系统前端应用" style="swimlane;startSize=20;" vertex="1" parent="94EtWdqL8nrlPsYe5-Ux-1">
          <mxGeometry x="140" width="120" height="480" as="geometry" />
        </mxCell>
        <mxCell id="94EtWdqL8nrlPsYe5-Ux-13" value="" style="edgeStyle=orthogonalEdgeStyle;rounded=0;orthogonalLoop=1;jettySize=auto;html=1;" edge="1" parent="94EtWdqL8nrlPsYe5-Ux-3" source="94EtWdqL8nrlPsYe5-Ux-9" target="94EtWdqL8nrlPsYe5-Ux-12">
          <mxGeometry relative="1" as="geometry" />
        </mxCell>
        <mxCell id="94EtWdqL8nrlPsYe5-Ux-9" value="&lt;font style=&quot;font-size: 10px;&quot;&gt;加载sso.js&lt;/font&gt;&lt;div style=&quot;font-size: 10px;&quot;&gt;&lt;font style=&quot;font-size: 10px;&quot;&gt;1、如果有token则认为完成认证，持有会话；&lt;/font&gt;&lt;/div&gt;&lt;div style=&quot;font-size: 10px;&quot;&gt;&lt;font style=&quot;font-size: 10px;&quot;&gt;2、判断请求地址是否带有ticket参数&lt;/font&gt;&lt;/div&gt;" style="rounded=0;whiteSpace=wrap;html=1;align=left;" vertex="1" parent="94EtWdqL8nrlPsYe5-Ux-3">
          <mxGeometry x="10" y="130" width="100" height="80" as="geometry" />
        </mxCell>
        <mxCell id="94EtWdqL8nrlPsYe5-Ux-12" value="&lt;font style=&quot;font-size: 10px;&quot;&gt;是否带有&lt;/font&gt;&lt;div style=&quot;font-size: 10px;&quot;&gt;&lt;font style=&quot;font-size: 10px;&quot;&gt;ticket参数&lt;/font&gt;&lt;/div&gt;" style="rhombus;whiteSpace=wrap;html=1;" vertex="1" parent="94EtWdqL8nrlPsYe5-Ux-3">
          <mxGeometry x="20" y="240" width="80" height="80" as="geometry" />
        </mxCell>
        <mxCell id="94EtWdqL8nrlPsYe5-Ux-4" value="子系统单点登录客户端" style="swimlane;startSize=20;fontColor=#FF3333;" vertex="1" parent="94EtWdqL8nrlPsYe5-Ux-1">
          <mxGeometry x="260" width="146" height="480" as="geometry" />
        </mxCell>
        <mxCell id="94EtWdqL8nrlPsYe5-Ux-14" value="&lt;font style=&quot;font-size: 10px;&quot;&gt;单点登录客户端进行处理，将ticket转给单点登录服务端，验证通过则创建会话token&lt;/font&gt;" style="rounded=0;whiteSpace=wrap;html=1;align=left;" vertex="1" parent="94EtWdqL8nrlPsYe5-Ux-4">
          <mxGeometry x="18" y="130" width="100" height="80" as="geometry" />
        </mxCell>
        <mxCell id="94EtWdqL8nrlPsYe5-Ux-11" value="" style="edgeStyle=orthogonalEdgeStyle;rounded=0;orthogonalLoop=1;jettySize=auto;html=1;" edge="1" parent="94EtWdqL8nrlPsYe5-Ux-1" source="94EtWdqL8nrlPsYe5-Ux-7">
          <mxGeometry relative="1" as="geometry">
            <mxPoint x="200" y="130" as="targetPoint" />
          </mxGeometry>
        </mxCell>
        <mxCell id="94EtWdqL8nrlPsYe5-Ux-15" value="" style="edgeStyle=orthogonalEdgeStyle;rounded=0;orthogonalLoop=1;jettySize=auto;html=1;" edge="1" parent="94EtWdqL8nrlPsYe5-Ux-1" source="94EtWdqL8nrlPsYe5-Ux-12" target="94EtWdqL8nrlPsYe5-Ux-14">
          <mxGeometry relative="1" as="geometry" />
        </mxCell>
        <mxCell id="94EtWdqL8nrlPsYe5-Ux-16" value="有ticket参数&lt;div&gt;对ticket验证&lt;/div&gt;" style="edgeLabel;html=1;align=center;verticalAlign=middle;resizable=0;points=[];" vertex="1" connectable="0" parent="94EtWdqL8nrlPsYe5-Ux-15">
          <mxGeometry x="-0.5056" relative="1" as="geometry">
            <mxPoint as="offset" />
          </mxGeometry>
        </mxCell>
        <mxCell id="94EtWdqL8nrlPsYe5-Ux-5" value="单点登录服务端" style="swimlane;startSize=20;fontColor=#ff0000;" vertex="1" parent="1">
          <mxGeometry x="510" y="300" width="116" height="480" as="geometry" />
        </mxCell>
        <mxCell id="94EtWdqL8nrlPsYe5-Ux-17" value="&lt;font style=&quot;font-size: 10px;&quot;&gt;验证客户端发送的ticket与服务端是否一致，一致则登录成功&lt;/font&gt;" style="rounded=0;whiteSpace=wrap;html=1;align=center;" vertex="1" parent="94EtWdqL8nrlPsYe5-Ux-5">
          <mxGeometry x="8" y="240" width="102" height="80" as="geometry" />
        </mxCell>
        <mxCell id="94EtWdqL8nrlPsYe5-Ux-24" value="&lt;font style=&quot;font-size: 10px;&quot;&gt;产生用户新信息和ticket的映射对&lt;/font&gt;" style="rounded=0;whiteSpace=wrap;html=1;align=center;" vertex="1" parent="94EtWdqL8nrlPsYe5-Ux-5">
          <mxGeometry x="8" y="338" width="100" height="80" as="geometry" />
        </mxCell>
        <mxCell id="94EtWdqL8nrlPsYe5-Ux-6" value="用户信息验证服务" style="swimlane;startSize=20;" vertex="1" parent="1">
          <mxGeometry x="626" y="300" width="120" height="480" as="geometry" />
        </mxCell>
        <mxCell id="94EtWdqL8nrlPsYe5-Ux-21" value="&lt;font style=&quot;font-size: 10px;&quot;&gt;发起用户认证&lt;/font&gt;&lt;div&gt;&lt;font style=&quot;font-size: 10px;&quot;&gt;信息查询&lt;/font&gt;&lt;/div&gt;" style="rounded=0;whiteSpace=wrap;html=1;align=center;" vertex="1" parent="94EtWdqL8nrlPsYe5-Ux-6">
          <mxGeometry x="10" y="337" width="100" height="81" as="geometry" />
        </mxCell>
        <mxCell id="94EtWdqL8nrlPsYe5-Ux-19" value="" style="edgeStyle=orthogonalEdgeStyle;rounded=0;orthogonalLoop=1;jettySize=auto;html=1;entryX=0.5;entryY=0;entryDx=0;entryDy=0;startArrow=classic;startFill=1;" edge="1" parent="1" source="94EtWdqL8nrlPsYe5-Ux-14" target="94EtWdqL8nrlPsYe5-Ux-17">
          <mxGeometry relative="1" as="geometry">
            <mxPoint x="544" y="470" as="targetPoint" />
          </mxGeometry>
        </mxCell>
        <mxCell id="94EtWdqL8nrlPsYe5-Ux-20" value="&lt;font style=&quot;font-size: 10px;&quot;&gt;发起HTTP请求&lt;/font&gt;&lt;div style=&quot;font-size: 10px;&quot;&gt;&lt;font style=&quot;font-size: 10px;&quot;&gt;至单点登录服务端验票&lt;/font&gt;&lt;/div&gt;" style="edgeLabel;html=1;align=center;verticalAlign=middle;resizable=0;points=[];" vertex="1" connectable="0" parent="94EtWdqL8nrlPsYe5-Ux-19">
          <mxGeometry x="-0.3177" y="-1" relative="1" as="geometry">
            <mxPoint x="21" y="-1" as="offset" />
          </mxGeometry>
        </mxCell>
        <mxCell id="94EtWdqL8nrlPsYe5-Ux-22" value="" style="edgeStyle=orthogonalEdgeStyle;rounded=0;orthogonalLoop=1;jettySize=auto;html=1;startArrow=classic;startFill=1;" edge="1" parent="1" source="94EtWdqL8nrlPsYe5-Ux-17" target="94EtWdqL8nrlPsYe5-Ux-21">
          <mxGeometry relative="1" as="geometry" />
        </mxCell>
        <mxCell id="94EtWdqL8nrlPsYe5-Ux-30" value="说明：&lt;div&gt;1、子系统前端应用需要集成sso.js，sso.js由一站式平台应用提供。&lt;/div&gt;&lt;div&gt;2、子系统需要实现单点登录客户端。&lt;/div&gt;&lt;div&gt;3、一站式平台实现单点登录服务端。&lt;/div&gt;" style="text;html=1;align=left;verticalAlign=middle;rounded=0;labelBorderColor=none;textShadow=0;" vertex="1" parent="1">
          <mxGeometry x="104" y="789" width="616" height="71" as="geometry" />
        </mxCell>
        <mxCell id="94EtWdqL8nrlPsYe5-Ux-26" value="" style="edgeStyle=orthogonalEdgeStyle;rounded=0;orthogonalLoop=1;jettySize=auto;html=1;entryX=0;entryY=0.5;entryDx=0;entryDy=0;" edge="1" parent="1" source="94EtWdqL8nrlPsYe5-Ux-12" target="94EtWdqL8nrlPsYe5-Ux-24">
          <mxGeometry relative="1" as="geometry">
            <mxPoint x="334" y="670" as="targetPoint" />
            <Array as="points">
              <mxPoint x="304" y="678" />
            </Array>
          </mxGeometry>
        </mxCell>
        <mxCell id="94EtWdqL8nrlPsYe5-Ux-27" value="没有ticket参数" style="edgeLabel;html=1;align=center;verticalAlign=middle;resizable=0;points=[];" vertex="1" connectable="0" parent="94EtWdqL8nrlPsYe5-Ux-26">
          <mxGeometry x="-0.7415" y="-2" relative="1" as="geometry">
            <mxPoint as="offset" />
          </mxGeometry>
        </mxCell>
        <mxCell id="94EtWdqL8nrlPsYe5-Ux-28" style="edgeStyle=orthogonalEdgeStyle;rounded=0;orthogonalLoop=1;jettySize=auto;html=1;entryX=0.5;entryY=1;entryDx=0;entryDy=0;entryPerimeter=0;exitX=0.5;exitY=1;exitDx=0;exitDy=0;" edge="1" parent="1" source="94EtWdqL8nrlPsYe5-Ux-24" target="94EtWdqL8nrlPsYe5-Ux-7">
          <mxGeometry relative="1" as="geometry">
            <mxPoint x="516" y="683" as="sourcePoint" />
            <Array as="points">
              <mxPoint x="567" y="740" />
              <mxPoint x="184" y="740" />
            </Array>
          </mxGeometry>
        </mxCell>
        <mxCell id="94EtWdqL8nrlPsYe5-Ux-29" value="&lt;div style=&quot;font-size: 10px;&quot;&gt;&lt;font style=&quot;font-size: 10px;&quot;&gt;认证通过&lt;/font&gt;&lt;/div&gt;&lt;font style=&quot;font-size: 10px;&quot;&gt;携带ticket参数&lt;/font&gt;&lt;div style=&quot;font-size: 10px;&quot;&gt;&lt;font style=&quot;font-size: 10px;&quot;&gt;进行浏览器重定向&lt;/font&gt;&lt;/div&gt;" style="edgeLabel;html=1;align=center;verticalAlign=middle;resizable=0;points=[];" vertex="1" connectable="0" parent="94EtWdqL8nrlPsYe5-Ux-28">
          <mxGeometry x="0.4315" relative="1" as="geometry">
            <mxPoint as="offset" />
          </mxGeometry>
        </mxCell>
      </root>
    </mxGraphModel>
  </diagram>
</mxfile>
